<?xml version="1.0" standalone="no"?>
<!DOCTYPE svg PUBLIC "-//W3C//DTD SVG 20010904//EN"
 "http://www.w3.org/TR/2001/REC-SVG-20010904/DTD/svg10.dtd">
<svg version="1.0" xmlns="http://www.w3.org/2000/svg"
 width="1024.000000pt" height="1024.000000pt" viewBox="0 0 1024.000000 1024.000000"
 preserveAspectRatio="xMidYMid meet">
<metadata>
Created by potrace 1.14, written by Peter Selinger 2001-2017
</metadata>
<g transform="translate(0.000000,1024.000000) scale(0.100000,-0.100000)"
fill="#000000" stroke="none">
<path d="M0 5120 l0 -5120 5120 0 5120 0 0 5120 0 5120 -5120 0 -5120 0 0
-5120z m3459 2883 c128 -406 259 -821 291 -923 32 -102 263 -833 513 -1625
250 -792 478 -1521 505 -1620 120 -427 256 -990 327 -1349 14 -71 27 -131 29
-133 2 -2 6 25 10 59 22 202 203 975 350 1498 30 107 138 458 241 780 103 322
249 781 325 1020 352 1107 414 1302 444 1395 18 55 142 445 276 868 l244 767
838 0 c461 0 838 -4 838 -9 0 -7 -137 -413 -390 -1156 -43 -126 -159 -468
-258 -760 -99 -291 -334 -982 -522 -1535 -188 -553 -423 -1243 -522 -1535 -99
-291 -213 -627 -253 -745 -175 -515 -444 -1307 -577 -1698 l-143 -422 -909 2
-908 3 -193 570 c-194 573 -413 1219 -760 2240 -103 303 -238 701 -300 885
-135 400 -149 441 -770 2270 -607 1789 -635 1871 -635 1882 0 4 377 8 838 8
l838 0 233 -737z"/>
</g>
</svg>
